<?xml version="1.0" encoding="UTF-8"?>
<svg width="24px" height="25px" viewBox="0 0 24 25" version="1.1" xmlns="http://www.w3.org/2000/svg" xmlns:xlink="http://www.w3.org/1999/xlink">
    <!-- Generator: Sketch 63.1 (92452) - https://sketch.com -->
    <title>Slice 1</title>
    <desc>Created with Sketch.</desc>
    <g id="Page-1" stroke="none" stroke-width="1" fill="none" fill-rule="evenodd">
        <g id="001-facebook">
            <rect id="Background" x="0" y="0" width="24" height="24.0000038"></rect>
            <path d="M14.1338501,23.84375 C13.9677917,24.0246443 13.801125,24.191311 13.6338501,24.34375 C13.801125,24.191311 13.9677917,24.0246443 14.1338501,23.84375 L14.1338501,23.84375 Z" id="Shape" fill="#8BC540"></path>
            <path d="M14.5315552,23.8027344 C14.3648885,23.9779169 14.1982218,24.1385008 14.0315552,24.3027344 C14.1982218,24.1385008 14.3648885,23.9779169 14.5315552,23.8027344 L14.5315552,23.8027344 Z" id="Shape" fill="#8BC540"></path>
            <path d="M13.5129395,23.9221191 C13.3471377,24.1115928 13.180298,24.2800139 13.0129395,24.4221191 C13.180298,24.2800139 13.3471377,24.1115928 13.5129395,23.9221191 L13.5129395,23.9221191 Z" id="Shape" fill="#8BC540"></path>
            <path d="M13.9271088,23.894043 C13.7609832,24.0723038 13.5937754,24.2375212 13.4271088,24.394043 C13.5937754,24.2375212 13.7609832,24.0723038 13.9271088,23.894043 L13.9271088,23.894043 Z" id="Shape" fill="#8BC540"></path>
            <path d="M14.8748779,23.7380371 C14.7086929,23.9070026 14.5417854,24.0759681 14.3748779,24.2380371 C14.5417854,24.0759681 14.7086929,23.9070026 14.8748779,23.7380371 L14.8748779,23.7380371 Z" id="Shape" fill="#8BC540"></path>
            <path d="M15.7102051,23.5366211 C15.5435384,23.7075888 15.3768717,23.8688791 15.2102051,24.0366211 C15.3768717,23.8688791 15.5435384,23.7075888 15.7102051,23.5366211 L15.7102051,23.5366211 Z" id="Shape" fill="#8BC540"></path>
            <path d="M15.4558563,23.6035156 C15.2897379,23.7712371 15.1227971,23.9421232 14.9558563,24.1035156 C15.1227971,23.9421232 15.2897379,23.7744017 15.4558563,23.6035156 L15.4558563,23.6035156 Z" id="Shape" fill="#8BC540"></path>
            <path d="M15.1281128,23.6838379 C14.9624781,23.8562517 14.7952954,24.0183206 14.6281128,24.1838379 C14.7952954,24.0183206 14.9624781,23.8562517 15.1281128,23.6838379 L15.1281128,23.6838379 Z" id="Shape" fill="#8BC540"></path>
            <path d="M13.319397,23.9572754 C13.1528912,24.1431728 12.9863854,24.3098395 12.819397,24.4572754 C12.9863854,24.3098395 13.1528912,24.1431728 13.319397,23.9572754 L13.319397,23.9572754 Z" id="Shape" fill="#8BC540"></path>
            <path d="M24,12 C24,5.37359705 18.6264038,0 12,0 C5.37359619,0 0,5.37359705 0,12 C0,18.6264068 5.37359619,24 12,24 C12.0704956,24 12.140625,23.998539 12.2109375,23.9972572 L12.2109375,14.655764 L9.6328125,14.655764 L9.6328125,11.6511859 L12.2109375,11.6511859 L12.2109375,9.44018705 C12.2109375,6.87597766 13.7763062,5.48034755 16.0636597,5.48034755 C17.1589966,5.48034755 18.1005249,5.5620126 18.375,5.5984506 L18.375,8.27838266 L16.7977295,8.27838266 C15.5533447,8.27838266 15.3123779,8.86981342 15.3123779,9.73755038 L15.3123779,11.6511859 L18.2878418,11.6511859 L17.9000244,14.655764 L15.3123779,14.655764 L15.3123779,23.5363807 C20.328186,22.0984532 24,17.4774198 24,12 L24,12 Z" id="Shape" fill="#8BC540"></path>
            <path d="M12.916748,23.9733887 C12.7507305,24.1890749 12.5839827,24.3606436 12.416748,24.4733887 C12.5839827,24.3606436 12.7507305,24.1890749 12.916748,23.9733887 L12.916748,23.9733887 Z" id="Shape" fill="#8BC540"></path>
            <path d="M12.7111206,23.9924316 C12.5447603,24.2146539 12.3779405,24.3813205 12.2111206,24.4924316 C12.3779405,24.3813205 12.5447603,24.2146539 12.7111206,23.9924316 L12.7111206,23.9924316 Z" id="Shape" fill="#8BC540"></path>
        </g>
    </g>
</svg>