<?xml version="1.0" encoding="UTF-8"?>
<svg width="24px" height="24px" viewBox="0 0 24 24" version="1.1" xmlns="http://www.w3.org/2000/svg" xmlns:xlink="http://www.w3.org/1999/xlink">
    <!-- Generator: Sketch 63.1 (92452) - https://sketch.com -->
    <title>Slice 1</title>
    <desc>Created with Sketch.</desc>
    <g id="Page-1" stroke="none" stroke-width="1" fill="none" fill-rule="evenodd">
        <g id="013-twitter-1" fill="#838383">
            <path d="M12,0 C5.37359619,0 0,5.37359619 0,12 C0,18.6264038 5.37359619,24 12,24 C18.6264038,24 24,18.6264038 24,12 C24,5.37359619 18.6264038,0 12,0 L12,0 Z M17.4790648,9.35626165 C17.4843747,9.47436471 17.4869384,9.59301712 17.4869384,9.71221873 C17.4869384,13.3518056 14.7165527,17.5487649 9.65020744,17.5489483 L9.65039068,17.5489483 L9.65020744,17.5489483 C8.09472663,17.5489483 6.64727785,17.0930157 5.42834473,16.3117046 C5.64385986,16.3371567 5.86322023,16.3497904 6.08532716,16.3497904 C7.37585455,16.3497904 8.56347657,15.9096053 9.50628675,15.1707748 C8.30053717,15.1484358 7.28393546,14.3521107 6.93310551,13.2576891 C7.10101317,13.2899156 7.27368153,13.3074936 7.4507447,13.3074936 C7.70214851,13.3074936 7.94567868,13.2736192 8.17712394,13.210448 C6.91680912,12.9581287 5.96740722,11.8442983 5.96740722,10.5105585 C5.96740722,10.4981072 5.96740722,10.4869377 5.96777344,10.475402 C6.33892822,10.6817621 6.76336666,10.8059074 7.215271,10.8198236 C6.47570802,10.3263544 5.98956297,9.48278762 5.98956297,8.52716023 C5.98956297,8.02252166 6.12597655,7.54974346 6.36254882,7.14270009 C7.72082518,8.80932577 9.75073231,9.90539496 12.0399169,10.0205682 C11.9926759,9.81878597 11.9683228,9.60858085 11.9683228,9.3925167 C11.9683228,7.87200904 13.2019046,6.63842773 14.7229612,6.63842773 C15.5152586,6.63842773 16.2308352,6.97332757 16.7334595,7.50872784 C17.3609619,7.38494856 17.9501954,7.1557006 18.4824828,6.84020992 C18.2764888,7.48309313 17.8399661,8.02252166 17.27124,8.36364711 C17.8284301,8.2969967 18.3594356,8.1492307 18.8529053,7.92987033 C18.4843135,8.48229953 18.0168453,8.96752888 17.4790648,9.35626165 L17.4790648,9.35626165 Z" id="Shape"></path>
        </g>
    </g>
</svg>