<?xml version="1.0" encoding="UTF-8"?>
<svg width="24px" height="24px" viewBox="0 0 24 24" version="1.1" xmlns="http://www.w3.org/2000/svg" xmlns:xlink="http://www.w3.org/1999/xlink">
    <!-- Generator: Sketch 63.1 (92452) - https://sketch.com -->
    <title>Slice 1</title>
    <desc>Created with Sketch.</desc>
    <g id="Page-1" stroke="none" stroke-width="1" fill="none" fill-rule="evenodd">
        <g id="Assets/Icon/Dark/Menu/Default-instance">
            <path d="M21.4734402,18.9473724 C21.7641163,18.9473724 21.9997559,19.183012 21.9997559,19.4736881 C21.9997559,19.7643643 21.7641163,20.0000038 21.4734402,20.0000038 L2.52607155,20.0000038 C2.23539542,20.0000038 1.99975586,19.7643643 1.99975586,19.4736881 C1.99975586,19.183012 2.23539542,18.9473724 2.52607155,18.9473724 L21.4734402,18.9473724 Z M21.4734402,11.4736786 C21.7641163,11.4736786 21.9997559,11.7093181 21.9997559,11.9999943 C21.9997559,12.2906704 21.7641163,12.52631 21.4734402,12.52631 L2.52607155,12.52631 C2.23539542,12.52631 1.99975586,12.2906704 1.99975586,11.9999943 C1.99975586,11.7093181 2.23539542,11.4736786 2.52607155,11.4736786 L21.4734402,11.4736786 Z M21.4736842,4 C21.7643604,4 22,4.23563961 22,4.52631581 C22,4.816992 21.7643604,5.05263162 21.4736842,5.05263162 L2.52631581,5.05263162 C2.23563961,5.05263162 2,4.816992 2,4.52631581 C2,4.23563961 2.23563961,4 2.52631581,4 L21.4736842,4 Z" id="Rectangle-4-Union" fill="#FFFFFF"></path>
            <rect id="Rectangle" x="0" y="0" width="24" height="24"></rect>
        </g>
    </g>
</svg>