<?xml version="1.0" encoding="UTF-8"?>
<svg width="24px" height="24px" viewBox="0 0 24 24" version="1.1" xmlns="http://www.w3.org/2000/svg" xmlns:xlink="http://www.w3.org/1999/xlink">
    <!-- Generator: Sketch 63.1 (92452) - https://sketch.com -->
    <title>Slice 1</title>
    <desc>Created with Sketch.</desc>
    <g id="Page-1" stroke="none" stroke-width="1" fill="none" fill-rule="evenodd">
        <g id="011-instagram" fill="#838383">
            <path d="M14.296875,12 C14.296875,13.2685547 13.2685547,14.296875 12,14.296875 C10.7314453,14.296875 9.703125,13.2685547 9.703125,12 C9.703125,10.7314453 10.7314453,9.703125 12,9.703125 C13.2685547,9.703125 14.296875,10.7314453 14.296875,12 L14.296875,12 Z" id="Shape"></path>
            <path d="M17.3715834,7.93621857 C17.2611711,7.63702417 17.0850232,7.36621118 16.8561417,7.14392107 C16.6338516,6.9150392 16.3632212,6.73889168 16.0638437,6.62847905 C15.8210459,6.53417973 15.4563,6.42193605 14.7844861,6.39135743 C14.0577405,6.35821533 13.8398445,6.35107422 12.0000005,6.35107422 C10.1599737,6.35107422 9.94207805,6.35803223 9.21551559,6.39117432 C8.54370139,6.42193605 8.17877212,6.53417973 7.93615746,6.62847905 C7.63677992,6.73889168 7.36596695,6.9150392 7.14385994,7.14392107 C6.9149781,7.36621118 6.73883063,7.63684108 6.62823489,7.93621857 C6.53393558,8.17901642 6.42169191,8.54394571 6.39111329,9.21575998 C6.35797119,9.9423225 6.35083008,10.1602182 6.35083008,12.0002451 C6.35083008,13.8400892 6.35797119,14.0579853 6.39111329,14.784731 C6.42169191,15.4565449 6.53393558,15.8212908 6.62823489,16.0640887 C6.73883063,16.3634662 6.91479501,16.6340966 7.14367686,16.8563867 C7.36596695,17.0852683 7.63659683,17.2614161 7.93597429,17.3718285 C8.17877212,17.466311 8.54370139,17.5785545 9.21551559,17.6091332 C9.94207805,17.6422751 10.1597906,17.6492329 11.9998177,17.6492329 C13.8400276,17.6492329 14.0579236,17.6422751 14.7843029,17.6091332 C15.4561168,17.5785545 15.8210459,17.466311 16.0638437,17.3718285 C16.664796,17.1400169 17.1397718,16.665041 17.3715834,16.0640887 C17.4658828,15.8212908 17.5781262,15.4565449 17.6088881,14.784731 C17.64203,14.0579853 17.6489878,13.8400892 17.6489878,12.0002451 C17.6489878,10.1602182 17.64203,9.9423225 17.6088881,9.21575998 C17.5783094,8.54394571 17.466066,8.17901642 17.3715834,7.93621857 L17.3715834,7.93621857 Z M12.0000009,15.538332 C10.0457158,15.538332 8.46148682,13.9542861 8.46148682,12.000001 C8.46148682,10.0457157 10.0457158,8.46166992 12.0000009,8.46166992 C13.9541029,8.46166992 15.538332,10.0457157 15.538332,12.000001 C15.538332,13.9542861 13.9541029,15.538332 12.0000009,15.538332 L12.0000009,15.538332 Z M15.6782222,9.14868212 C15.2215574,9.14868212 14.8513184,8.77844273 14.8513184,8.32177758 C14.8513184,7.86511241 15.2215574,7.49487305 15.6782222,7.49487305 C16.1348869,7.49487305 16.505126,7.86511241 16.505126,8.32177758 C16.5049428,8.77844273 16.1348869,9.14868212 15.6782222,9.14868212 L15.6782222,9.14868212 Z" id="Shape"></path>
            <path d="M12,0 C5.37359619,0 0,5.37359619 0,12 C0,18.6264038 5.37359619,24 12,24 C18.6264038,24 24,18.6264038 24,12 C24,5.37359619 18.6264038,0 12,0 L12,0 Z M18.8490581,14.8408814 C18.8157328,15.5744013 18.6990944,16.0751955 18.5288061,16.5135497 C18.1708351,17.4391479 17.4391462,18.1708369 16.5135482,18.528808 C16.0753763,18.6990963 15.5743999,18.8155515 14.8410632,18.84906 C14.1062612,18.8825684 13.8715197,18.890625 12.0001822,18.890625 C10.1286612,18.890625 9.89410326,18.8825684 9.15911803,18.84906 C8.42578078,18.8155515 7.92480432,18.6990963 7.48663289,18.528808 C7.0266721,18.3557737 6.61029024,18.0845945 6.2660521,17.7339472 C5.91558827,17.3898927 5.64440908,16.9733276 5.47137446,16.5135497 C5.3010864,16.0753778 5.18444823,15.5744013 5.15112304,14.8410646 C5.11724853,14.1060793 5.109375,13.8713377 5.109375,12 C5.109375,10.1286619 5.11724853,9.89392075 5.15093994,9.15911859 C5.18426512,8.42559806 5.30072018,7.92480471 5.47100825,7.48645005 C5.64404288,7.02667237 5.91540515,6.61010737 6.2660521,6.26605226 C6.61010717,5.91540526 7.0266721,5.64422608 7.48644972,5.4711914 C7.92480432,5.30090331 8.42559761,5.18444824 9.15911803,5.15093994 C9.89392009,5.11743164 10.1286612,5.109375 11.999999,5.109375 C13.8713365,5.109375 14.106078,5.11743164 14.8408801,5.15112305 C15.5743999,5.18444824 16.075194,5.30090331 16.5135482,5.4710083 C16.973326,5.64404295 17.389891,5.91540526 17.7341287,6.26605226 C18.0845927,6.61029045 18.355955,7.02667237 18.5288061,7.48645005 C18.6992776,7.92480471 18.8157328,8.42559806 18.8492413,9.15911859 C18.8827489,9.89392075 18.8906231,10.1286619 18.8906231,12 C18.8906231,13.8713377 18.8827489,14.1060793 18.8490581,14.8408814 L18.8490581,14.8408814 Z" id="Shape"></path>
        </g>
    </g>
</svg>