<?xml version="1.0" encoding="UTF-8"?>
<svg width="24px" height="24px" viewBox="0 0 24 24" version="1.1" xmlns="http://www.w3.org/2000/svg" xmlns:xlink="http://www.w3.org/1999/xlink">
    <!-- Generator: Sketch 63.1 (92452) - https://sketch.com -->
    <title>Slice 1</title>
    <desc>Created with Sketch.</desc>
    <g id="Page-1" stroke="none" stroke-width="1" fill="none" fill-rule="evenodd">
        <g id="008-youtube" fill="#838383">
            <path d="M10.5053101,14.2482891 L14.4087524,12.0001211 L10.5053101,9.75195312 L10.5053101,14.2482891 Z" id="Shape"></path>
            <path d="M12,0 C5.37359619,0 0,5.37359619 0,12 C0,18.6264038 5.37359619,24 12,24 C18.6264038,24 24,18.6264038 24,12 C24,5.37359619 18.6264038,0 12,0 L12,0 Z M19.4982338,12.0122685 C19.4982338,12.0122685 19.4982338,14.4459234 19.189454,15.6194462 C19.0164194,16.2617804 18.5099494,16.7682498 17.8676154,16.9411017 C16.6940925,17.25 12.0000008,17.25 12.0000008,17.25 C12.0000008,17.25 7.31817646,17.25 6.13238533,16.9288332 C5.49005131,16.7559819 4.98358154,16.2493291 4.8105469,15.6069949 C4.50164795,14.4459234 4.50164795,12 4.50164795,12 C4.50164795,12 4.50164795,9.5665285 4.8105469,8.39300542 C4.98339846,7.7506714 5.5023194,7.23175049 6.13238533,7.05889895 C7.30590837,6.75 12.0000008,6.75 12.0000008,6.75 C12.0000008,6.75 16.6940925,6.75 17.8676154,7.07116701 C18.5099494,7.24401858 19.0164194,7.7506714 19.189454,8.39300542 C19.510621,9.5665285 19.4982338,12.0122685 19.4982338,12.0122685 L19.4982338,12.0122685 Z" id="Shape"></path>
        </g>
    </g>
</svg>